<?xml version="1.0" standalone="no"?><!DOCTYPE svg PUBLIC "-//W3C//DTD SVG 1.1//EN" "http://www.w3.org/Graphics/SVG/1.1/DTD/svg11.dtd"><svg class="icon" width="200px" height="200.00px" viewBox="0 0 1024 1024" version="1.1" xmlns="http://www.w3.org/2000/svg"><path fill="#8d8d94" d="M959.26044446 331.54844445c-24.34844444-59.96088887-59.96088887-113.66400002-106.04088892-159.744s-99.78311113-81.80622223-159.744-106.0408889C635.67644446 42.32533333 574.57777777 30.37866666 511.88622221 30.37866666S387.98222222 42.32533333 330.1831111 65.76355555c-59.96088887 24.34844444-113.66400002 59.96088887-159.74399999 106.0408889s-81.80622223 99.78311113-106.04088889 159.744C40.96 389.34755555 29.01333331 450.44622221 29.01333331 513.13777777S40.96 637.0417778 64.39822222 694.8408889c24.34844444 59.96088887 59.96088887 113.66400002 106.04088889 159.74399996s99.78311113 81.80622223 159.74399999 106.04088891c57.79911113 23.43822222 119.01155555 35.3848889 181.70311113 35.3848889s123.79022221-11.94666668 181.70311109-35.3848889c59.96088887-24.34844444 113.66400002-59.96088887 159.74400001-106.04088891s81.80622223-99.78311113 106.04088889-159.74399999c23.43822222-57.79911113 35.3848889-119.01155555 35.38488888-181.7031111s-12.06044445-123.79022221-35.49866666-181.58933332zM937.52888889 498.11911111c-95.91466669 11.83288889-199.22488886-24.46222223-280.68977776-97.62133333l164.29511107-164.29511111c2.84444446-2.84444446 4.6648889-6.144 5.68888893-9.67111113 68.26666666 74.86577779 107.17866668 170.21155554 110.70577776 271.58755557zM798.60622223 198.31466666c-3.52711114 1.02400001-6.82666667 2.95822222-9.6711111 5.6888889L624.64 368.29866668c-73.27288889-81.46488887-109.45422222-184.66133334-97.62133333-280.576 97.73511115 3.52711114 194.56 40.3911111 271.58755556 110.59199998z m-317.44-109.68177776c-5.57511113 53.70311111 2.048 110.81955554 22.18666666 165.7742222 19.22844446 52.67911113 49.94844447 102.85511111 89.20177778 146.09066668l-85.56088889 85.56088889L226.41777778 205.48266669c-1.47911113-1.47911113-3.18577777-2.73066666-5.00622223-3.7546667 73.50044445-68.72177779 165.66044446-106.38222223 259.75466668-113.09511109zM190.80533332 233.3582222c0.91022222 1.59288889 2.048 3.07200002 3.41333336 4.43733335l280.46222221 280.46222225-95.23199999 95.23200002c-40.04977779-36.40888889-84.99200002-64.73955557-133.6888889-84.42311115-52.11022222-20.93511111-107.17866668-30.72-159.40266668-28.33066668 2.73066666-95.80088889 37.54666668-190.80533332 104.44800002-267.37777776z m-103.42399999 313.00266667c89.54311113-4.43733334 185.00266667 32.42666669 259.75466666 99.44177779L196.38044444 796.55822223c-0.4551111 0.4551111-0.79644446 0.91022222-1.25155554 1.36533331-64.73955557-71.90755556-100.69333335-160.88177777-107.74755557-251.56266664z m139.83288888 283.64800004c0.4551111-0.34133334 0.91022222-0.79644446 1.36533333-1.25155558l150.86933336-150.86933334c67.01511113 74.75200001 103.87911114 170.21155554 99.44177778 259.6408889-90.79466666-6.94044446-179.76888889-42.78044445-251.67644447-107.52000002zM524.40177777 938.66666667c2.38933334-51.99644446-7.28177778-106.72355557-28.1031111-158.72000001-19.56977777-49.03822227-48.01422221-94.09422223-84.65066667-134.25777775l95.34577778-95.34577778 280.00711112 280.00711109c1.47911113 1.47911113 3.18577777 2.73066666 4.89244443 3.75466671-76.68622222 66.90133332-171.69066666 101.83111113-267.49155556 104.56177774z m298.78044444-134.82666668c-1.02400001-2.048-2.38933334-3.86844445-4.096-5.57511112L539.07911111 518.2577778l85.56088889-85.56088893c79.872 72.59022221 179.76888889 113.09511111 276.82133334 113.09511112 11.7191111 0 23.55200001-0.5688889 35.15733333-1.82044445-6.82666667 97.39377778-46.42133333 188.18844445-113.43644446 259.86844447z"  /></svg>