<?xml version="1.0" standalone="no"?><!DOCTYPE svg PUBLIC "-//W3C//DTD SVG 1.1//EN" "http://www.w3.org/Graphics/SVG/1.1/DTD/svg11.dtd"><svg class="icon" width="200px" height="200.00px" viewBox="0 0 1024 1024" version="1.1" xmlns="http://www.w3.org/2000/svg"><path fill="#8d8d94" d="M276.43448887 300.82844445l168.93724447-127.30974816c46.36065185-34.22435555 107.64894816-43.08385184 161.04865184-22.57351106l268.69760003 101.82352584c17.84035556 6.91768891 36.53025184 9.83040003 54.37060737 9.83040006h44.41884445c12.86447408 0 23.66577779 9.83040003 23.6657778 22.5735111v327.19454815c0 12.74311113-10.92266667 23.54441479-23.6657778 23.54441479h-58.25422221c-7.88859263 0-16.74808889 2.9127111-22.69487408 7.88859261l-12.86447406 10.80130368c-2.9127111 2.9127111-7.88859263 1.94180742-10.92266671-0.97090369l-313.1164444-378.16699256c-7.88859263-9.83040003-21.72397036-11.77220742-32.64663703-5.82542226l-143.20829632 79.37137779c-28.64165925 15.65582223-63.23010371 17.59762964-93.81357038 4.8545185-15.77718518-6.91768891-23.66577779-25.48622221-16.74808889-42.11294813-0.12136298-4.00497781 2.79134816-7.88859263 6.79632596-10.92266666zM55.18980741 634.94068149h50.36562961l35.55934815-43.08385187c31.55437036-38.22933334 88.83768889-43.08385184 127.43111112-11.77220741 13.83537778 11.77220742 24.6366815 27.42802963 29.61256296 45.02565927 30.58346667 7.88859263 54.37060742 31.31164445 63.23010373 61.77374816 21.72397036 6.79632591 41.50613333 20.6317037 52.30743702 41.14204444 18.81125926 2.9127111 36.53025184 11.77220742 50.36562964 25.48622222 28.64165925 30.34074075 34.58844447 75.48776298 12.86447407 111.65392592l-4.9758815 8.85949633v0.97090366c23.66577779 15.65582223 55.34151111 10.80130369 72.08960001-12.74311107 7.88859263-11.77220742 10.92266667-25.48622221 7.88859261-39.20023707v-0.97090369h0.97090368l4.00497779 3.88361483c17.84035556 17.59762964 46.48201484 20.6317037 67.11371853 6.79632592 16.74808889-11.77220742 24.6366815-32.28254815 20.75306665-51.94334814v-0.97090373h0.9709037l4.0049778 3.88361483c17.71899259 17.59762964 45.38974815 20.51034076 67.11371848 6.79632592 16.74808889-11.77220742 25.72894813-32.28254815 21.72397038-51.94334813v-0.84954077h0.97090369l4.0049778 3.88361482c16.74808889 16.62672593 43.44794075 19.53943705 63.23010369 7.88859261 24.6366815-14.68491854 32.64663701-45.99656298 17.84035556-70.51188151-1.94180742-2.9127111-4.00497781-5.82542223-5.94678518-7.88859262l-31.55437035-38.2293333-255.83312595-308.50465186c-2.9127111-2.9127111-6.91768891-3.88361482-10.92266664-1.9418074L397.91881482 390.03022221c-39.56432596 21.60260741-85.92497778 25.48622221-128.40201482 9.83040001-23.66577779-7.88859263-41.50613333-26.45712593-50.36562964-49.03063705-6.91768891-23.54441479-4.00497781-49.03063703 8.85949631-69.54097777 2.9127111-5.82542223 0.9709037-12.74311113-4.9758815-15.65582219-1.94180742-0.9709037-4.00497781-0.9709037-5.94678517-0.97090373H50.21392591c-12.86447408 0-23.66577779 9.83040003-23.66577776 22.57351111v326.22364444c4.97588149 11.65084445 15.77718518 21.48124446 28.64165926 21.48124446z m177.79674072-23.54441481c-19.78216298-10.80130369-43.44794075-5.82542223-57.28331851 11.77220739l-34.58844445 42.11294814c-14.80628148 18.56853334-12.86447408 45.99656298 5.94678518 60.68148148h0.97090367l4.97588153 3.88361482c13.83537778 10.80130369 33.61754077 11.77220742 48.42382224 3.88361481 0.9709037-0.9709037 1.94180742 0 2.91271111 0.9709037v1.94180742c-2.9127111 15.65582223 2.9127111 32.28254815 15.77718517 42.11294815l4.00497778 2.91271111c13.83537778 10.80130369 31.55437036 11.77220742 47.45291851 4.85451853 0.9709037-0.9709037 2.9127111 0 2.91271113 0.9709037v0.97090372c-1.94180742 14.68491854 4.97588149 29.36983703 16.74808889 39.20023701l2.91271111 1.94180741c13.83537778 10.80130369 31.55437036 12.74311113 47.45291851 3.88361484 0.9709037-0.9709037 2.9127111 0 2.91271111 0.97090367v0.97090371c1.94180742 10.80130369 7.88859263 20.6317037 16.74808888 27.42802962l1.94180742 0.97090373c19.78216298 14.68491854 47.45291855 11.77220742 62.25920001-7.88859261 0.9709037-1.94180742 2.9127111-3.88361482 4.00497779-4.85451851l5.94678517-10.80130373c10.92266667-18.56853334 7.88859263-41.14204447-7.8885926-55.82696295-12.86447408-11.77220742-31.55437036-14.68491854-48.42382224-7.88859259-0.9709037 0-0.9709037 0-1.94180741-0.97090369v-0.97090369c0.9709037-23.54441479-17.84035556-44.05475557-41.50613334-45.996563-5.94678521 0-11.89357037 0.9709037-17.84035554 2.91271112-6.91768891 0.9709037-4.97588149-4.85451852-4.97588148-4.85451849 8.85949631-22.57351111-0.9709037-46.96746666-23.66577777-56.79786667-11.89357037-4.85451852-26.69985185-3.88361482-37.50115556 1.94180738-4.97588149 0.9709037-4.00497781-3.88361482-4.00497777-3.88361481 12.98583706-18.3258074 6.06814815-44.78293334-14.68491854-56.55514072z m0 0"  /></svg>