<?xml version="1.0" standalone="no"?><!DOCTYPE svg PUBLIC "-//W3C//DTD SVG 1.1//EN" "http://www.w3.org/Graphics/SVG/1.1/DTD/svg11.dtd"><svg class="icon" width="200px" height="200.00px" viewBox="0 0 1024 1024" version="1.1" xmlns="http://www.w3.org/2000/svg"><path fill="#8d8d94" d="M328.90050686 133.64961449l-18.36518297-37.14461815c63.51867787-31.48317076 131.87029861-47.36284025 203.12168509-47.36284022 64.20909828 0 126.34693533 12.97990373 184.75650213 38.80162714l-16.70817398 37.97312261c-53.02428761-23.33620993-109.63876134-35.21144099-168.04832815-35.21144101-64.89951868-0.13808411-127.03735571 14.36074457-184.75650212 42.94414963zM513.65700898 965.88237854c-122.48058101 0-237.50462157-47.63900841-324.08334118-134.21772802-86.57871962-86.57871962-134.217728-201.74084426-134.21772797-324.08334115 0-84.50745837 23.19812583-167.08173958 67.108864-238.8854624l35.34952507 21.67920094c-39.9062998 65.31377094-61.03316438 140.43151171-61.03316438 217.34434552 0 229.90999705 187.10393155 417.01392857 417.01392854 417.0139286s417.01392857-187.10393155 417.01392858-417.0139286c0-80.22685183-22.78387359-158.10627425-66.00419137-225.21513823l34.79718874-22.36962133c47.5009243 73.87498406 72.6322273 159.48711507 72.63222729 247.58475959 0 122.48058101-47.63900841 237.50462157-134.21772797 324.08334115s-201.87892833 134.07964395-324.35950935 134.07964393z"  /><path fill="#8d8d94" d="M148.2865272 305.70238103l-16.70817397-7.45654044C76.62088848 273.52878985 41.13327935 218.70940918 41.13327935 158.5047493c0-84.50745837 68.76587298-153.27333136 153.27333135-153.27333137 65.31377094 0 123.58525369 41.42522469 144.85020235 103.14880949l5.93761554 17.2605103-16.29392173 8.14696084c-70.69905013 35.07335691-129.93712146 89.20231717-171.08617799 156.58734935l-9.52780167 15.32733312zM194.4066107 46.51855857c-61.72358481 0-111.84810667 50.12452189-111.84810667 111.84810667 0 37.97312266 19.33177153 73.04647955 50.53877412 93.4829237 41.01097246-60.89508031 95.69226905-111.01960217 160.03945141-146.36912725-19.33177153-35.76377733-57.02872599-58.96190318-98.73011886-58.96190316z"  /><path fill="#8d8d94" d="M157.81432887 290.23696382l-35.34952504-21.67920093c45.291579-74.01306812 110.32918177-133.52730762 188.07052006-172.05276653l18.36518297 37.14461813c-70.69905013 35.07335691-129.93712146 89.20231717-171.08617799 156.58734933zM875.7134728 299.48859732l-11.04672659-17.12242618c-44.46307451-69.18012525-107.8436683-123.3090855-182.96140908-156.44926527l-18.64135109-8.28504493 8.00887678-18.77943522c24.02663031-56.89064192 79.53643141-93.62100781 141.26001621-93.62100779 84.50745837 0 153.27333136 68.76587298 153.27333135 153.27333137 0 53.30045577-27.06448014 102.04413683-72.49414321 130.21328962l-17.39859437 10.7705584zM718.43570306 97.33350082c67.24694811 33.55443201 124.9660945 82.85044939 168.60066448 144.29786603 23.47429398-20.98878051 37.00653407-50.95302638 37.00653406-83.12661755 0-61.72358481-50.12452189-111.84810667-111.84810667-111.84810667-38.38737488-0.13808411-73.32264771 19.33177153-93.7590919 50.67685822z"  /><path fill="#8d8d94" d="M864.66674621 282.36617111c-44.46307451-69.18012525-107.8436683-123.3090855-182.96140908-156.44926524l16.70817398-37.97312263c82.57428122 36.45419773 152.1686587 95.83035312 201.05042384 172.05276656l-34.79718874 22.36962134zM340.22340162 503.57687095c-57.44297824 0-104.25348215-42.25372918-104.25348216-94.17334408s46.81050391-94.17334414 104.25348216-94.17334414 104.25348215 42.25372918 104.25348216 94.17334414-46.81050391 94.17334414-104.25348216 94.17334411z m0-146.92146353c-34.65910466 0-62.82825746 23.6123781-62.82825747 52.74811945s28.1691528 52.74811943 62.82825747 52.74811943 62.82825746-23.6123781 62.82825746-52.74811943-28.1691528-52.74811943-62.82825746-52.74811945zM686.67636413 503.57687095c-57.44297824 0-104.25348215-42.25372918-104.25348216-94.17334408s46.81050391-94.17334414 104.25348216-94.17334414 104.25348215 42.25372918 104.25348212 94.17334414-46.67241982 94.17334414-104.25348215 94.17334411z m-3e-8-146.92146353c-34.65910466 0-62.82825746 23.6123781-62.82825743 52.74811945s28.1691528 52.74811943 62.82825746 52.74811943 62.82825746-23.6123781 62.82825744-52.74811943-28.1691528-52.74811943-62.82825747-52.74811945z"  /></svg>