<?xml version="1.0" standalone="no"?><!DOCTYPE svg PUBLIC "-//W3C//DTD SVG 1.1//EN" "http://www.w3.org/Graphics/SVG/1.1/DTD/svg11.dtd"><svg class="icon" width="200px" height="200.00px" viewBox="0 0 1024 1024" version="1.1" xmlns="http://www.w3.org/2000/svg"><path fill="#8d8d94" d="M977.547636 837.81818198H826.27490899v151.27272702a34.909091 34.909091 0 1 1-69.81818198 0V837.81818198h-151.272727a34.909091 34.909091 0 1 1 0-69.81818198H756.45672698v-151.272727a34.909091 34.909091 0 0 1 69.81818203 0V768h151.27272699a34.909091 34.909091 0 0 1 0 69.81818198zM500.456727 605.090909c-6.423273 7.121455-12.846545 0-23.272727 0-174.871273 0-395.42690901 167.68-395.42690901 366.289455a34.909091 34.909091 0 0 1-35.095273 34.69963601 34.909091 34.909091 0 0 1-35.11854501-34.69963601c0-164.119273 137.099636-350.16145501 330.40290901-408.99490901C249.53018202 510.78981799 197.911273 414.952727 197.911273 302.545455 197.911273 136.471273 332.47418201 0 500.456727 0s302.545455 136.47127299 302.54545499 302.545455c0 165.18981799-135.796364 301.102545-302.54545499 302.545454z m0-535.27272702c-129.024 0-232.727273 105.16945501-232.727272 232.72727302s103.703273 232.727273 232.727272 232.727272 232.727273-105.16945501 232.72727299-232.727272S629.480727 69.81818201 500.456727 69.81818201z"  /></svg>