<?xml version="1.0" standalone="no"?><!DOCTYPE svg PUBLIC "-//W3C//DTD SVG 1.1//EN" "http://www.w3.org/Graphics/SVG/1.1/DTD/svg11.dtd"><svg class="icon" width="200px" height="200.00px" viewBox="0 0 1024 1024" version="1.1" xmlns="http://www.w3.org/2000/svg"><path fill="#8d8d94" d="M250.45333333 533.86666668l61.01333334-49.49333336 122.02666666 90.13333335S602.02666667 400 764.8 318.61333332l23.25333334 26.24000002S584.64000001 513.49333333 480.10666665 737.49333333L250.45333333 533.86666668zM181.33333333 188.80000001v394.45333332c0 64.10666668 0 233.38666667 335.04000001 366.50666666 335.04000001-133.12 335.04000001-302.40000001 335.03999999-366.50666666V188.80000001c-185.49333335-0.74666668-292.26666667-66.77333333-335.04000002-100.90666668-42.77333335 34.13333333-149.54666667 100.16000002-335.03999998 100.90666666z m335.04000001 824.74666666l-10.66666668-4.16000001C161.70666667 876.37333333 122.02666667 702.50666667 122.02666667 583.25333333V127.89333332l30.72 1.06666669c239.04000003 8.10666667 340.80000002-99.84000001 341.76-100.90666667l21.86666667-24.00000001 21.86666666 24.00000001c0.85333333 0.85333333 97.28000001 101.33333333 316.2666667 101.33333334 8.32 0 16.85333333-0.10666668 25.4933333-0.42666667l30.72-1.06666667v455.35999999c0 119.25333333-39.78666668 293.12-383.68000001 426.13333335l-10.66666665 4.15999999z"  /></svg>