<?xml version="1.0" standalone="no"?><!DOCTYPE svg PUBLIC "-//W3C//DTD SVG 1.1//EN" "http://www.w3.org/Graphics/SVG/1.1/DTD/svg11.dtd"><svg class="icon" width="200px" height="200.00px" viewBox="0 0 1024 1024" version="1.1" xmlns="http://www.w3.org/2000/svg"><path d="M512 993.88526623c-265.67095579 0-481.88526623-216.21431044-481.88526623-481.88526623s216.21431044-481.88526623 481.88526623-481.88526623 481.88526623 216.21431044 481.88526623 481.88526623-216.21431044 481.88526623-481.88526623 481.88526623z" fill="#d81e06" /><path d="M704.75410649 537.70054727h-385.508213c-14.20293474 0-25.70054727-11.49761383-25.70054725-25.70054727s11.49761383-25.70054727 25.70054725-25.70054727h385.508213c14.20293474 0 25.70054727 11.49761383 25.70054727 25.70054727s-11.49761383 25.70054727-25.70054727 25.70054727z" fill="#ffffff" /><path d="M512 730.45465376c-14.20293474 0-25.70054727-11.49761383-25.70054727-25.70054725v-385.508213c0-14.20293474 11.49761383-25.70054727 25.70054727-25.70054727s25.70054727 11.49761383 25.70054727 25.70054725v385.508213c0 14.20293474-11.49761383 25.70054727-25.70054727 25.70054727z" fill="#ffffff" /></svg>