<?xml version="1.0" standalone="no"?><!DOCTYPE svg PUBLIC "-//W3C//DTD SVG 1.1//EN" "http://www.w3.org/Graphics/SVG/1.1/DTD/svg11.dtd"><svg class="icon" width="200px" height="200.00px" viewBox="0 0 1024 1024" version="1.1" xmlns="http://www.w3.org/2000/svg"><path fill="#8d8d94" d="M386.05824 997.66006518c-257.75559111 0-383.01240889-60.27946665-383.01240889-184.55893333 0-87.28803553 130.1504-144.63203554 261.66954666-164.59434667v-7.43765333c-98.24711111-75.15363555-111.36113779-209.4136889-111.36113777-319.79633777 0-150.30840889 88.46222222-240.14051555 236.81365333-240.14051556h7.82791112c148.35143111 0 236.81479111 89.83210667 236.8147911 240.14051556 0 110.38264889-13.11288889 244.44700445-111.36113777 319.79633777v7.43765333c131.51914666 19.96231113 261.66954668 77.11061333 261.66954667 164.59434667 0 84.35370669-69.28270222 184.55893333-399.06076445 184.55893333z m4.10965333-843.52682666c-108.81706667 0-164.0083911 56.36551113-164.00839111 167.33525333 0 103.92462224 11.15591111 217.04704001 94.52999111 270.0856889 10.56881778 6.65372445 16.83114668 18.2010311 16.83114666 30.72682665v58.3224889c0 18.59242666-14.09137778 34.24938667-32.48810666 36.20750222-137.78261333 14.48277333-229.18030223 67.52028445-229.18030222 96.29013333 0 74.17628445 104.31488 111.75253334 310.20600889 111.75253333 207.26101333 0 326.25436445-40.70741333 326.25436445-111.75253333 0-28.7698489-91.39768889-81.80736-229.18030222-96.29013333-18.59242666-1.95697778-32.48810667-17.61507555-32.48810668-36.20750222v-58.3224889c0-12.52693333 6.45802666-24.07310222 16.83114667-30.72796443 83.17838222-53.03751111 94.52999111-166.35676444 94.52999109-270.08455112 0-110.96974223-55.19132444-167.33525333-164.00839109-167.33525333h-7.82791112z"  /><path fill="#8d8d94" d="M952.45425778 774.15499852c-20.15914667 0-36.4032-16.24519113-36.4032-36.40319998 0-27.79136-103.72778667-95.50848-224.09216-108.22997336-18.59242666-1.95697778-32.68380445-17.61393778-32.68380445-36.20636443v-75.54616888c0-12.52579555 6.45802666-24.07310222 16.83114667-30.72682669 94.13859555-59.8880711 104.31488-193.16963555 104.31488001-247.77386664 0-125.64821333-84.93966222-152.06968889-156.17934223-152.06968891-20.15800889 0-36.4032-16.24405333-36.4032-36.4032s16.24519113-36.40206222 36.4032-36.40206222c141.30517335 0 228.98574223 86.11384889 228.98574221 224.87495113 0 63.41176889-12.1344 214.69866668-121.14716444 297.28995554v25.24728887c116.25358222 21.13649778 256.77596445 91.00629333 256.77596446 175.94595559 0.19569779 20.15800889-16.24405333 36.4032-36.40206223 36.40319998z"  /></svg>