<?xml version="1.0" standalone="no"?><!DOCTYPE svg PUBLIC "-//W3C//DTD SVG 1.1//EN" "http://www.w3.org/Graphics/SVG/1.1/DTD/svg11.dtd"><svg class="icon" width="200px" height="200.00px" viewBox="0 0 1024 1024" version="1.1" xmlns="http://www.w3.org/2000/svg"><path fill="#8d8d94" d="M249.85599999 1007.1608889c-19.41807444 0-33.98163001-4.8545189-48.54518556-19.41807447-19.41807444-19.41807444-24.27259221-43.69066667-19.41807331-67.96325888l14.56355555-48.54518556c-111.65392555-97.09036999-169.90814777-228.16236999-169.9081489-368.94340665 0-266.99851892 218.45333333-485.45185223 485.45185223-485.45185224s485.45185223 218.45333333 485.45185223 485.45185224-218.45333333 485.45185223-485.45185223 485.45185109c-43.69066667 0-82.52681443-4.8545189-126.21748109-14.56355555l-121.36296336 33.98162999h-14.56355556z m262.14400001-922.35851891c-228.16236999 0-417.48859221 189.32622222-417.48859221 417.48859335 0 126.21748109 58.25422222 247.58044445 160.19911111 325.25273999l14.56355555 14.56355555-24.27259337 92.23585223 140.78103781-33.98163001 9.70903666 4.8545189c38.83614777 9.70903666 77.67229667 14.56355555 116.50844445 14.56355555 228.16236999 0 417.48859221-189.32622222 417.48859221-417.48859221 0-228.16236999-189.32622222-417.48859221-417.48859221-417.48859335z"  /><path fill="#8d8d94" d="M512 550.83614777c-38.83614777 0-72.81777777-33.98163001-72.81777777-72.81777778s33.98163001-72.81777777 72.81777777-72.81777778 72.81777777 33.98163001 72.81777777 72.81777778-33.98163001 72.81777777-72.81777777 72.81777778z m0-101.94488889c-14.56355555 0-29.12711113 14.56355555-29.12711113 29.12711111s14.56355555 29.12711113 29.12711113 29.12711111 29.12711113-14.56355555 29.12711113-29.12711111-14.56355555-29.12711113-29.12711113-29.12711111z"  /><path fill="#8d8d94" d="M512 575.10874112c-29.12711113 0-58.25422222-14.56355555-72.81777777-38.83614891a73.49740999 73.49740999 0 0 0 145.63555554 0c-14.56355555 24.27259221-43.69066667 38.83614777-72.81777777 38.83614891zM288.69214777 550.83614777c-38.83614777 0-72.81777777-33.98163001-72.81777778-72.81777778s33.98163001-72.81777777 72.81777778-72.81777778 72.81777777 33.98163001 72.81777778 72.81777778-29.12711113 72.81777777-72.81777778 72.81777778z m0-101.94488889c-14.56355555 0-29.12711113 14.56355555-29.12711111 29.12711111s14.56355555 29.12711113 29.12711111 29.12711111 29.12711113-14.56355555 29.12711111-33.98162887-14.56355555-24.27259221-29.12711111-24.27259335z"  /><path fill="#8d8d94" d="M288.69214777 575.10874112c-29.12711113 0-58.25422222-14.56355555-72.81777778-38.83614891a73.49740999 73.49740999 0 0 0 145.63555556 0c-14.56355555 24.27259221-43.69066667 38.83614777-72.81777778 38.83614891z"  /><path fill="#8d8d94" d="M735.30785223 550.83614777c-38.83614777 0-72.81777777-33.98163001-72.81777778-72.81777778s33.98163001-72.81777777 72.81777778-72.81777778 72.81777777 33.98163001 72.81777778 72.81777778-33.98163001 72.81777777-72.81777778 72.81777778z m0-101.94488889c-14.56355555 0-29.12711113 14.56355555-29.12711111 29.12711111s14.56355555 29.12711113 29.12711111 29.12711111 29.12711113-14.56355555 29.12711111-29.12711111-14.56355555-29.12711113-29.12711111-29.12711111z"  /><path fill="#8d8d94" d="M735.30785223 575.10874112c-29.12711113 0-58.25422222-14.56355555-72.81777778-38.83614891a73.49740999 73.49740999 0 0 0 145.63555556 0c-19.41807444 24.27259221-43.69066667 38.83614777-72.81777778 38.83614891z"  /></svg>