<?xml version="1.0" standalone="no"?><!DOCTYPE svg PUBLIC "-//W3C//DTD SVG 1.1//EN" "http://www.w3.org/Graphics/SVG/1.1/DTD/svg11.dtd"><svg class="icon" width="200px" height="200.00px" viewBox="0 0 1024 1024" version="1.1" xmlns="http://www.w3.org/2000/svg"><path fill="#8d8d94" d="M297.19726459 1003.07014755c-43.58710401 27.08174105-100.58562371 13.07483614-127.05893095-31.01713657a93.85402429 93.85402429 0 0 1-10.87412148-69.69794015l56.41597746-240.58993778a15.9487111 15.9487111 0 0 0-4.88040887-15.61213155l-184.66588444-160.91110758c-38.35716861-33.39908741-42.78448947-91.80865422-9.99383585-130.74836502a91.84749037 91.84749037 0 0 1 62.78510576-32.46701983L321.27567645 302.2848c5.28171615-0.44014342 10.00678043-3.92245097 12.16866016-9.2171129l93.37504471-228.36949569c19.45691022-47.57428148 73.56861038-70.29342816 120.78042074-50.31870342a92.61126755 92.61126755 0 0 1 49.55492504 50.31870342l93.37504593 228.35655112c2.16187851 5.30760651 6.88694402 8.80285984 12.16866016 9.23005747l242.37640059 19.75465362c50.82357214 4.14252206 88.45579969 49.10183705 84.42978608 100.14548149a93.37504592 93.37504592 0 0 1-31.65146075 63.08284918l-184.66588445 160.91110756c-4.29786666 3.74121601-6.23967406 9.79965511-4.88041007 15.59918577l56.41597868 240.58993777c11.67673481 49.77499613-18.64135113 99.92540918-68.13154965 111.92577897a91.36851081 91.36851081 0 0 1-69.81444857-11.21070103l-207.50153956-128.93601187a13.7091603 13.7091603 0 0 0-14.57650134 0l-207.51448534 128.93601187z"  /></svg>