<?xml version="1.0" standalone="no"?><!DOCTYPE svg PUBLIC "-//W3C//DTD SVG 1.1//EN" "http://www.w3.org/Graphics/SVG/1.1/DTD/svg11.dtd"><svg class="icon" width="200px" height="200.00px" viewBox="0 0 1024 1024" version="1.1" xmlns="http://www.w3.org/2000/svg"><path fill="#8d8d94" d="M806.43359375 706.32617188l-68.11523438-136.05468751c-0.703125-1.49414063-1.14257813-3.07617188-1.14257812-4.74609374l-0.17578125-150.64453126c-0.08789063-84.99023438-57.65625-156.53320313-135.79101563-177.89062499v-0.08789063c0-48.8671875-39.63867188-88.50585938-88.50585937-88.50585938-48.77929688 0-88.33007813 39.46289063-88.50585938 88.24218751C345.18359375 257.64453125 286.91210937 329.71484375 287 415.3203125l0.17578125 150.64453125c0 1.66992188-0.3515625 3.25195313-1.14257813 4.74609375l-68.02734374 135.87890625c-19.86328125 39.7265625 9.05273438 86.57226563 53.52539062 86.484375l481.55273438-0.3515625c44.38476563 0.08789063 73.30078125-46.66992188 53.34960937-86.39648438zM432.45898437 818.5625c-8.87695313 0-13.7109375 10.28320313-8.17382812 17.2265625 20.56640625 25.6640625 52.20703125 42.09960938 87.62695313 42.09960938 35.5078125 0 67.1484375-16.43554688 87.80273437-42.1875 5.53710938-6.94335938 0.703125-17.2265625-8.17382813-17.13867188h-159.08203124z"  /></svg>