<?xml version="1.0" standalone="no"?><!DOCTYPE svg PUBLIC "-//W3C//DTD SVG 1.1//EN" "http://www.w3.org/Graphics/SVG/1.1/DTD/svg11.dtd"><svg class="icon" width="200px" height="200.00px" viewBox="0 0 1024 1024" version="1.1" xmlns="http://www.w3.org/2000/svg"><path fill="#8d8d94" d="M884.66132133 477.64467988h2.48551346a4.08728842 4.08728842 0 0 1 0.16570091 2.26457983c-7.73270818 39.65774886-15.07878178 81.856244-21.98298547 121.56922562-4.08728842 23.58476169-8.06410997 46.23055075-11.81999788 66.99839717-10.88102525 59.54185673-20.98878007 106.76661286-32.03550753 140.01725945-8.11934403 24.24756528-16.40438898 41.53569153-25.68363931 52.19578312a30.65466627 30.65466627 0 0 1-9.61065211 7.89840907 37.44840311 37.44840311 0 0 1-16.51485582 3.09308302l-227.3416331-0.33140181h-0.05523407l-251.0920944-0.27616772H291.06546788l-0.11046683-0.16570091h-0.05523406a1.60177492 1.60177492 0 0 1-0.33140181-0.49710269v-0.11046685l-0.05523276-0.33140178c-0.60756953-61.97213614-1.60177492-121.01689017-2.54074753-179.17790563-1.15990629-69.59437748-2.31981259-137.75268094-2.76168123-207.84416112 111.57193893-52.47195085 189.28566046-169.01491675 201.05042297-291.08124507 6.79373685-28.33485369 17.840463-42.36419602 25.46270564-49.10270009 8.39551178-7.40130638 18.22709886-11.04672615 28.72148825-11.48859479 24.35803212-0.99420539 42.14326235 13.5874737 46.94858842 30.48896537 11.87523065 41.5909256 19.99457469 126.3745517 16.95672574 200.88472208l-4.75009329 114.99642373h115.10689187c24.63419985 0 44.8497095-0.05523407 63.68437789-0.16570088 34.0239183-0.11046684 63.51867829-0.27616773 106.26951018 0.16570088z m-342.66945866 504.17260219l228.11490354 0.33140178C871.01861357 981.48588027 907.80421309 898.63543088 926.25224691 843.40179753c19.05560336-57.22204414 33.25064658-138.74688634 48.27419561-225.07705459 6.73850278-38.66354348 13.64270777-78.37652512 21.20971504-117.26100226a114.5545551 114.5545551 0 0 0-66.50129447-126.92688845 137.75268094 137.75268094 0 0 0-43.46886954-6.95943774c-22.86672403-0.22093497-42.25372918-0.27616773-60.48082805-0.27616774l-48.32942838 0.11046683c-18.77943563 0.11046684-38.66354348 0.1657009-62.24830386 0.16570091 0.99420539-24.30279805 0.99420539-49.98643735 0-75.67007669-2.26457852-60.20466032-9.6658862-120.13315161-21.04401416-160.01183543-41.09382291-144.21501599-274.0140525-165.25903013-316.82011843 43.80027134-7.62224133 107.98175194-89.3680185 206.02145123-187.62865146 223.30957748-11.87523065 2.09887762-14.63691315 6.62803596-14.63691316 18.66896879-0.05523407 94.28381139 1.43607402 185.03266986 2.92738341 276.99666866 0.99420539 57.99531457 1.93317671 116.5429659 2.54074625 176.74762493 0.55233676 61.03316481 50.04167143 110.46726541 111.01960217 110.4672667l250.7606939 0.3314018h0.16570089zM125.36456912 484.38318398a55.23363335 55.23363335 0 1 0-110.46726541 0v441.86906293a55.23363335 55.23363335 0 1 0 110.46726541 0v-441.86906293z m159.62519957-67.05363124v-0.05523276z"  /></svg>