<?xml version="1.0" standalone="no"?><!DOCTYPE svg PUBLIC "-//W3C//DTD SVG 1.1//EN" "http://www.w3.org/Graphics/SVG/1.1/DTD/svg11.dtd"><svg class="icon" width="200px" height="200.00px" viewBox="0 0 1024 1024" version="1.1" xmlns="http://www.w3.org/2000/svg"><path fill="#8d8d94" d="M457.38666667 493.79555555H238.93333333c-20.0248889 0-36.40888889-16.38400001-36.40888888-36.40888888s16.38400001-36.40888889 36.40888888-36.40888889h218.45333334c20.0248889 0 36.40888889 16.38400001 36.40888888 36.40888889s-16.38400001 36.40888889-36.40888888 36.40888888z"  /><path fill="#8d8d94" d="M348.16 748.65777778c-20.0248889 0-36.40888889-16.38400001-36.40888889-36.40888889V457.38666667c0-20.0248889 16.38400001-36.40888889 36.40888889-36.40888889s36.40888889 16.38400001 36.40888889 36.40888889v254.86222222c0 20.0248889-16.38400001 36.40888889-36.40888889 36.40888889zM675.84 748.65777778c-14.56355554 0-27.3066667-9.10222224-32.76800001-21.84533333l-109.22666666-254.86222224c-7.28177778-18.20444445 0-40.04977779 18.20444446-47.33155555 18.20444445-7.28177778 40.04977779 0 47.33155553 20.0248889L675.84 621.22666667l76.45866667-176.58311114c7.28177778-18.20444445 29.12711115-27.3066667 47.33155555-20.02488887 18.20444445 7.28177778 27.3066667 29.12711115 18.20444445 47.33155555l-109.22666667 254.86222224c-5.46133334 12.74311113-18.20444445 21.84533333-32.768 21.84533333z"  /><path fill="#8d8d94" d="M894.29333335 985.31555554H129.70666665c-60.07466668 0-109.22666667-49.15200001-109.22666665-109.22666665V293.54666667c0-60.07466668 49.15200001-109.22666667 109.22666668-109.22666667h764.58666664c60.07466668 0 109.22666667 49.15200001 109.22666668 109.22666667v582.54222222c0 60.07466668-49.15200001 109.22666667-109.22666665 109.22666667zM129.70666665 257.13777778c-20.0248889 0-36.40888889 16.38400001-36.40888887 36.40888889v582.54222222c0 20.0248889 16.38400001 36.40888889 36.4088889 36.40888889h764.58666664c20.0248889 0 36.40888889-16.38400001 36.4088889-36.40888889V293.54666667c0-20.0248889-16.38400001-36.40888889-36.40888887-36.40888889H129.70666665z"  /><path fill="#8d8d94" d="M439.18222223 257.13777778c-9.10222224 0-18.20444445-3.64088889-25.48622223-10.92266667l-182.04444445-182.04444444c-14.56355554-14.56355554-14.56355554-36.40888889 0-50.97244445 14.56355554-14.56355554 36.40888889-14.56355554 50.97244445 0l182.04444445 182.04444445c14.56355554 14.56355554 14.56355554 36.40888889 0 50.97244444-7.28177778 7.28177778-16.38400001 10.92266667-25.48622224 10.92266667zM584.81777777 257.13777778c-9.10222224 0-18.20444445-3.64088889-25.48622222-10.92266667-14.56355554-14.56355554-14.56355554-36.40888889 0-50.97244444l182.04444445-182.04444445c14.56355554-14.56355554 36.40888889-14.56355554 50.97244445 0 14.56355554 14.56355554 14.56355554 36.40888889 0 50.97244445l-182.04444445 182.04444444c-7.28177778 7.28177778-16.38400001 10.92266667-25.48622223 10.92266667z"  /></svg>