<?xml version="1.0" standalone="no"?><!DOCTYPE svg PUBLIC "-//W3C//DTD SVG 1.1//EN" "http://www.w3.org/Graphics/SVG/1.1/DTD/svg11.dtd"><svg class="icon" width="200px" height="191.40px" viewBox="0 0 1070 1024" version="1.1" xmlns="http://www.w3.org/2000/svg"><path fill="#8d8d94" d="M1016.00000001 350.54545437l-65.45454563-122.18181843c-50.18181844-93.81818156-148.36363591-152.7272728-253.09090876-152.72727188-21.81818156 0-39.2727272 15.27272719-43.63636405 37.09090874-8.72727281 58.90909125-58.90909125 104.72727284-117.81818158 104.72727283s-111.27272719-43.63636406-117.81818155-104.72727281c-2.18181844-21.81818156-21.81818156-37.09090875-43.63636406-37.09090876-109.09090874 0-207.27272719 58.90909125-257.45454563 152.72727188l-65.45454469 122.18181845c-21.81818156 41.45454563-26.18181844 89.45454562-13.09090968 135.27272717 15.27272719 45.81818156 45.81818156 80.72727281 89.45454561 102.54545438l30.54545438 15.27272813V773.81818156c0 96 78.54545438 174.54545437 174.5454544 174.54545438h399.27272717c96 0 174.54545437-78.54545438 174.54545531-174.54545438v-170.18181751l30.54545438-15.27272811c41.45454563-21.81818156 74.18181844-56.72727281 89.45454563-102.54545438 15.27272719-45.81818156 10.90909125-93.81818156-10.90909125-135.27272719z m-72.00000001 109.0909097c-6.54545437 21.81818156-24.00000003 41.45454563-43.63636406 52.36363593l-54.54545438 28.36363594c-15.27272719 6.54545437-24.00000003 21.81818156-24.00000002 39.27272812v196.36363593c0 48-39.2727272 87.27272719-87.27272716 87.27272719H335.27272719c-48 0-87.27272719-39.2727272-87.27272718-87.27272719v-196.36363593c0-17.45454563-8.72727281-32.72727281-24.00000001-39.27272812L169.45454562 512c-21.81818156-10.90909125-37.09090875-28.36363594-43.63636406-50.18181844-6.54545437-21.81818156-4.36363594-45.81818156 6.54545437-67.6363631l65.45454564-122.18181846c30.54545438-54.54545437 82.90909126-93.81818156 143.99999999-102.54545437 28.36363594 80.72727281 106.90909125 139.63636406 196.36363688 139.63636312s168.00000001-56.72727281 196.36363593-139.63636313c61.09090874 10.90909125 113.45454563 48 144.00000001 102.54545438l65.45454562 122.18181846c4.36363594 19.63636406 6.54545437 43.63636406 0 65.45454561z"  /><path fill="#8d8d94" d="M621.09090874 424.72727281h-174.54545436c-24.00000003 0-43.63636406 19.63636406-43.63636315 43.63636313s19.63636406 43.63636406 43.63636314 43.63636406h43.63636407v130.90909126c0 24.00000003 19.63636406 43.63636406 43.63636312 43.63636312s43.63636406-19.63636406 43.63636407-43.63636312v-130.90909126h43.63636314c24.00000003 0 43.63636406-19.63636406 43.63636403-43.63636406s-19.63636406-43.63636406-43.63636403-43.63636313z"  /></svg>