<?xml version="1.0" standalone="no"?><!DOCTYPE svg PUBLIC "-//W3C//DTD SVG 1.1//EN" "http://www.w3.org/Graphics/SVG/1.1/DTD/svg11.dtd"><svg class="icon" width="200px" height="200.00px" viewBox="0 0 1024 1024" version="1.1" xmlns="http://www.w3.org/2000/svg"><path fill="#8d8d94" d="M512 1003.52C241.11786667 1003.52 20.48 782.88213333 20.48 512S241.11786667 20.48 512 20.48s491.52 220.63786667 491.52 491.52c0 18.56853334-14.19946668 32.768-32.768 32.768s-32.768-14.19946668-32.768-32.768c0-234.83733334-191.14666668-425.984-425.984-425.984S86.016 277.16266666 86.016 512s191.14666668 425.984 425.984 425.984c18.56853334 0 32.768 14.19946668 32.768 32.768s-14.19946668 32.768-32.768 32.768z"  /><path fill="#8d8d94" d="M512 1003.52C241.11786667 1003.52 20.48 782.88213333 20.48 512S241.11786667 20.48 512 20.48s491.52 220.63786667 491.52 491.52c0 89.56586667-24.02986667 175.85493334-69.90506667 252.31360001-9.83040001 15.29173332-29.49120001 20.75306669-44.78293334 10.92266665-15.29173332-9.83040001-20.75306669-29.49120001-10.92266665-44.78293333 39.3216-65.536 60.07466668-141.99466667 60.07466666-218.45333333 0-234.83733334-191.14666668-425.984-425.984-425.984S86.016 277.16266666 86.016 512s191.14666668 425.984 425.984 425.984c97.21173334 0 188.96213334-31.67573334 264.32853333-92.84266668 6.5536-5.46133334 14.19946668-12.01493334 20.75306668-17.47626664 5.46133334-4.36906667 9.83040001-9.83040001 15.29173331-14.19946668 13.1072-13.1072 33.86026668-13.1072 45.87520002 0 13.1072 13.1072 13.1072 33.86026668 0 45.87519999-5.46133334 5.46133334-10.92266667 10.92266667-17.47626665 16.38400002-7.64586668 6.5536-15.29173332 14.19946668-24.02986668 20.75306666C730.45333333 966.38293333 624.50346668 1003.52 512 1003.52z"  /><path fill="#8d8d94" d="M768.68266668 341.6064c-9.83040001 0-19.6608-4.36906667-26.21439999-12.01493334-44.78293334-56.79786667-109.22666667-95.02719999-181.31626668-108.13439999-17.47626668-3.27680001-29.49120001-19.6608-26.21440002-38.22933332 3.27680001-17.47626668 19.6608-29.49120001 38.22933334-26.21440001 87.38133334 15.29173332 166.02453333 61.16693333 220.63786667 131.07199998 10.92266667 14.19946668 8.73813333 34.95253333-5.46133334 45.8752-5.46133334 5.46133334-12.01493334 7.64586668-19.66079998 7.64586668zM373.28213332 814.55786668c-25.12213334 0-50.24426667-6.5536-73.18186666-19.66080002-33.86026668-19.6608-58.9824-51.33653334-68.81279998-89.56586667-9.83040001-38.22933334-5.46133334-77.55093334 14.19946665-111.41119998 19.6608-33.86026668 51.33653334-58.9824 89.56586667-68.81280001l78.6432-20.75306666c38.22933334-9.83040001 77.55093334-5.46133334 111.4112 14.19946666 33.86026668 19.6608 58.9824 51.33653334 68.81280001 89.56586667 9.83040001 38.22933334 5.46133334 77.55093334-14.19946668 111.4112-19.6608 33.86026668-51.33653334 58.9824-89.56586666 68.81280001l-78.6432 20.75306664c-12.01493334 3.27680001-25.12213334 5.46133334-38.22933333 5.46133336z m78.64320002-250.12906667c-7.64586668 0-14.19946668 1.09226668-20.75306667 3.27679998L352.52906667 588.45866667c-20.75306669 5.46133334-38.22933334 19.6608-49.15200001 38.22933334s-14.19946668 41.50613333-7.64586666 62.25919999c5.46133334 20.75306669 19.6608 38.22933334 38.22933332 49.15199999s41.50613333 14.19946668 62.25920001 7.64586668l78.6432-20.75306668C494.52373332 719.53066667 512 705.33119999 522.92266667 686.76266667c10.92266667-18.56853334 14.19946668-41.50613333 7.64586667-62.25920001-5.46133334-20.75306669-19.6608-38.22933334-38.22933334-49.15199999-12.01493334-7.64586668-26.2144-10.92266667-40.41386668-10.92266666z"  /><path fill="#8d8d94" d="M566.61333333 675.84c-18.56853334 0-32.768-14.19946668-32.768-32.768V195.24266667c0-18.56853334 14.19946668-32.768 32.768-32.768s32.768 14.19946668 32.76800001 32.768v447.82933333c0 18.56853334-14.19946668 32.768-32.76800001 32.768z"  /></svg>