<?xml version="1.0" standalone="no"?><!DOCTYPE svg PUBLIC "-//W3C//DTD SVG 1.1//EN" "http://www.w3.org/Graphics/SVG/1.1/DTD/svg11.dtd"><svg class="icon" width="200px" height="200.00px" viewBox="0 0 1024 1024" version="1.1" xmlns="http://www.w3.org/2000/svg"><path fill="#8d8d94" d="M992 733.76000001q0 24.00000003-8.16 45.11999999t-22.56 38.39999999-34.08 28.32000001-42.72 14.87999998l0 1.92000004-20.16000001 0-0.95999999 0-623.04000001 0q-1.92 0-2.39999998 0.47999997t-2.40000001 0.48000001-2.88000001-0.48000001-2.87999999-0.47999997l-5.76 0 0-0.96000002q-40.32-1.92-75.36-18.24000001t-60.96-43.67999999-40.8-63.36-14.88-76.32 14.88-75.84000001 40.32-62.39999999 59.52-44.16 73.44000001-20.15999999q6.72000001-62.40000001 34.55999999-116.64000001t71.52000001-94.56000001 100.31999998-63.35999998 120.96-23.04q68.16000001 0 128.64 25.91999999t105.12000001 71.04 70.56 105.12 25.91999999 128.15999999q0 30.72-5.75999998 60.00000001t-16.32000001 56.16q1.92 0 4.32-0.47999999t4.31999999-0.48q26.88 0 49.92 10.07999999t40.32000003 27.36 27.35999999 40.8 10.07999999 50.40000001zM676.16000001 591.68000002q11.52-19.2 6.71999996-22.08000001t-23.99999998-2.88000002q-11.52 0-32.16-0.47999998t-31.2-0.48000001q-15.36000001 0-19.67999999-12.48000001t-4.32-34.56q0-30.72-0.48-49.43999999t-0.48000001-40.79999999q0-24.96-3.35999999-36.48000002t-27.36000002-11.52q-17.28 0-25.91999998 0.48000002t-24.00000001 0.47999999q-25.92000001 0-32.16 14.88t-6.24 29.28l0 30.72q0 12.48000001 0.48000002 23.99999999t0.47999999 24.00000001l0 27.83999999q0 15.36000001-3.84 23.52t-18.24000001 8.16000001q-5.76 0.96000001-15.83999999 1.44t-20.64000001 0.96000001-20.16 0.47999998l-15.35999999 0q-20.16000001 0-24.00000001 12.48000001t12.48000001 31.68000001q16.32000001 20.16000001 35.04 43.67999999t36.95999999 47.52 35.04000001 46.56 31.2 38.87999999q25.92000001 28.8 49.91999999-0.95999999 14.40000001-16.32000001 33.59999999-42.24t39.36000002-54.23999999 38.4-54.72000001 29.75999999-43.68000001z"  /></svg>