<?xml version="1.0" standalone="no"?><!DOCTYPE svg PUBLIC "-//W3C//DTD SVG 1.1//EN" "http://www.w3.org/Graphics/SVG/1.1/DTD/svg11.dtd"><svg class="icon" width="200px" height="200.00px" viewBox="0 0 1024 1024" version="1.1" xmlns="http://www.w3.org/2000/svg"><path fill="#8d8d94" d="M897.88522026 875.13780587"  /><path fill="#8d8d94" d="M985.05016853 928.79725334L985.05016853 96.31501227c0 0 1.2072288-59.49911574-63.55850346-59.49911574L97.13038292 36.81589653c-61.84808106 0-63.55959467 59.49911574-63.55959467 59.49911574l0 832.54554986c0-0.06221653 0.0633088 59.43471574 63.55959467 59.43471573l207.95110081 0 0-65.55163095 0-29.98314452 0-790.33075839 280.97532268 0-2e-8 246.09995628 83.85762347-82.07079468 84.52563734 82.07079468L754.4400672 102.429744l135.22049919 0c31.42614294 0 31.14671148 27.35802347 31.14671148 27.35802347l0 765.59785705c0 0 0.22485439 27.35802347-29.18305602 27.35802347l-447.91886078 0c-18.11825069 0-32.80583249 14.68758188-32.80583254 32.80583253 0 18.11825069 14.68758188 32.80583249 32.80583254 32.80583254 0.64400109 0 1.282544-0.02401387 1.91672107-0.06003413L921.49166613 988.29527786C987.52247678 988.29527786 985.05016853 928.79725334 985.05016853 928.79725334zM252.05948693 919.46906669L132.59735682 919.46906669l-4e-8-0.05894297c-28.19631574 0-29.8685344-27.24777919-29.86853438-27.24777918L102.7288224 129.6786144c0-26.14315413 29.8685344-27.24887041 29.86853442-27.2488704l119.46213011 0L252.05948693 919.46906669z"  /></svg>